<svg width="40" height="40" viewBox="0 0 40 40" fill="none" xmlns="http://www.w3.org/2000/svg">
    <style>
        .hidden {display: none; fill: none}
        .white-fill {fill: #ffffff}
        :target {display: block;}
    </style>
    <g id="left" class="white-fill hidden">
        <path d="M8.88821 21.5608L26.6887 39.361C27.1004 39.773 27.65 40 28.236 40C28.822 40 29.3716 39.773 29.7833 39.361L31.0942 38.0504C31.9472 37.1964 31.9472 35.8085 31.0942 34.9558L16.1467 20.0083L31.1108 5.04417C31.5225 4.63214 31.7498 4.08288 31.7498 3.49719C31.7498 2.91085 31.5225 2.36159 31.1108 1.94924L29.7999 0.639004C29.3879 0.226975 28.8386 -1.50043e-05 28.2526 -1.49531e-05C27.6666 -1.49018e-05 27.117 0.226975 26.7053 0.639004L8.88821 18.4555C8.47553 18.8688 8.24887 19.4206 8.25017 20.0073C8.24887 20.5962 8.47553 21.1478 8.88821 21.5608Z"/>
    </g>
    <g id="right" class="white-fill hidden">
        <path d="M31.112 19.3313L13.3115 1.53111C12.8998 1.11908 12.3502 0.892091 11.7642 0.89209C11.1781 0.89209 10.6286 1.11908 10.2169 1.53111L8.90597 2.84167C8.05297 3.69564 8.05297 5.0836 8.90597 5.93628L23.8535 20.8838L8.88938 35.8479C8.47768 36.2599 8.25036 36.8092 8.25036 37.3949C8.25036 37.9812 8.47767 38.5305 8.88938 38.9428L10.2003 40.2531C10.6123 40.6651 11.1616 40.8921 11.7476 40.8921C12.3336 40.8921 12.8832 40.6651 13.2949 40.2531L31.112 22.4366C31.5246 22.0233 31.7513 21.4714 31.75 20.8848C31.7513 20.2958 31.5246 19.7443 31.112 19.3313Z"/>
    </g>
</svg>
